<svg width="30" height="23" viewBox="0 0 30 23" fill="none" xmlns="http://www.w3.org/2000/svg">
<path d="M28.125 18.9829C28.125 19.4802 27.9275 19.9571 27.5758 20.3087C27.2242 20.6604 26.7473 20.8579 26.25 20.8579H3.75C3.25272 20.8579 2.77581 20.6604 2.42417 20.3087C2.07254 19.9571 1.875 19.4802 1.875 18.9829V7.73291C1.875 7.23563 2.07254 6.75872 2.42417 6.40709C2.77581 6.05545 3.25272 5.85791 3.75 5.85791H5.9475C7.43857 5.85709 8.86831 5.26429 9.9225 4.20978L11.4788 2.65729C11.8294 2.30655 12.3047 2.10901 12.8006 2.10791H17.1956C17.6929 2.10802 18.1697 2.30563 18.5212 2.65729L20.0738 4.20978C20.5962 4.73237 21.2165 5.14691 21.8992 5.4297C22.5818 5.71249 23.3136 5.858 24.0525 5.85791H26.25C26.7473 5.85791 27.2242 6.05545 27.5758 6.40709C27.9275 6.75872 28.125 7.23563 28.125 7.73291V18.9829ZM3.75 3.98291C2.75544 3.98291 1.80161 4.378 1.09835 5.08126C0.395088 5.78452 0 6.73835 0 7.73291L0 18.9829C0 19.9775 0.395088 20.9313 1.09835 21.6346C1.80161 22.3378 2.75544 22.7329 3.75 22.7329H26.25C27.2446 22.7329 28.1984 22.3378 28.9016 21.6346C29.6049 20.9313 30 19.9775 30 18.9829V7.73291C30 6.73835 29.6049 5.78452 28.9016 5.08126C28.1984 4.378 27.2446 3.98291 26.25 3.98291H24.0525C23.058 3.9827 22.1043 3.58747 21.4012 2.88416L19.8488 1.33166C19.1457 0.62835 18.192 0.233123 17.1975 0.23291H12.8025C11.808 0.233123 10.8543 0.62835 10.1512 1.33166L8.59875 2.88416C7.89565 3.58747 6.94198 3.9827 5.9475 3.98291H3.75Z" fill="#2A3647"/>
<path d="M15 17.1079C13.7568 17.1079 12.5645 16.614 11.6854 15.735C10.8064 14.8559 10.3125 13.6636 10.3125 12.4204C10.3125 11.1772 10.8064 9.98492 11.6854 9.10585C12.5645 8.22677 13.7568 7.73291 15 7.73291C16.2432 7.73291 17.4355 8.22677 18.3146 9.10585C19.1936 9.98492 19.6875 11.1772 19.6875 12.4204C19.6875 13.6636 19.1936 14.8559 18.3146 15.735C17.4355 16.614 16.2432 17.1079 15 17.1079ZM15 18.9829C16.7405 18.9829 18.4097 18.2915 19.6404 17.0608C20.8711 15.8301 21.5625 14.1609 21.5625 12.4204C21.5625 10.6799 20.8711 9.01073 19.6404 7.78002C18.4097 6.54931 16.7405 5.85791 15 5.85791C13.2595 5.85791 11.5903 6.54931 10.3596 7.78002C9.1289 9.01073 8.4375 10.6799 8.4375 12.4204C8.4375 14.1609 9.1289 15.8301 10.3596 17.0608C11.5903 18.2915 13.2595 18.9829 15 18.9829ZM5.625 8.67041C5.625 8.91905 5.52623 9.15751 5.35041 9.33332C5.1746 9.50914 4.93614 9.60791 4.6875 9.60791C4.43886 9.60791 4.2004 9.50914 4.02459 9.33332C3.84877 9.15751 3.75 8.91905 3.75 8.67041C3.75 8.42177 3.84877 8.18331 4.02459 8.0075C4.2004 7.83168 4.43886 7.73291 4.6875 7.73291C4.93614 7.73291 5.1746 7.83168 5.35041 8.0075C5.52623 8.18331 5.625 8.42177 5.625 8.67041Z" fill="#2A3647"/>
</svg>
