<svg width="30" height="22" viewBox="0 0 30 22" fill="none" xmlns="http://www.w3.org/2000/svg">
<path d="M13.6185 11.1999V3.13322C11.9296 3.44433 10.6185 4.261 9.68516 5.58322C8.75182 6.90544 8.28516 8.26655 8.28516 9.66655H7.61849C6.3296 9.66655 5.2296 10.1221 4.31849 11.0332C3.40738 11.9443 2.95182 13.0443 2.95182 14.3332C2.95182 15.6221 3.40738 16.7221 4.31849 17.6332C5.2296 18.5443 6.3296 18.9999 7.61849 18.9999H23.6185C24.5518 18.9999 25.3407 18.6777 25.9852 18.0332C26.6296 17.3888 26.9518 16.5999 26.9518 15.6666C26.9518 14.7332 26.6296 13.9443 25.9852 13.2999C25.3407 12.6554 24.5518 12.3332 23.6185 12.3332H21.6185V9.66655C21.6185 8.59989 21.374 7.60544 20.8852 6.68322C20.3963 5.761 19.7518 4.97766 18.9518 4.33322V1.23322C20.5963 2.011 21.8963 3.161 22.8518 4.68322C23.8074 6.20544 24.2852 7.86655 24.2852 9.66655C25.8185 9.84433 27.0907 10.5054 28.1018 11.6499C29.1129 12.7943 29.6185 14.1332 29.6185 15.6666C29.6185 17.3332 29.0352 18.7499 27.8685 19.9166C26.7018 21.0832 25.2852 21.6666 23.6185 21.6666H7.61849C5.59627 21.6666 3.86849 20.9666 2.43516 19.5666C1.00182 18.1666 0.285156 16.4554 0.285156 14.4332C0.285156 12.6999 0.807379 11.1554 1.85182 9.79989C2.89627 8.44433 4.26293 7.57766 5.95182 7.19989C6.3296 5.59989 7.27405 4.07766 8.78516 2.63322C10.2963 1.18877 11.9074 0.466553 13.6185 0.466553C14.3518 0.466553 14.9796 0.727664 15.5018 1.24989C16.024 1.77211 16.2852 2.39989 16.2852 3.13322V11.1999L17.4852 10.0332C17.7296 9.78878 18.0352 9.66655 18.4018 9.66655C18.7685 9.66655 19.0852 9.79989 19.3518 10.0666C19.5963 10.311 19.7185 10.6221 19.7185 10.9999C19.7185 11.3777 19.5963 11.6888 19.3518 11.9332L15.8852 15.3999C15.6185 15.6666 15.3074 15.7999 14.9518 15.7999C14.5963 15.7999 14.2852 15.6666 14.0185 15.3999L10.5518 11.9332C10.3074 11.6888 10.1796 11.3832 10.1685 11.0166C10.1574 10.6499 10.2852 10.3332 10.5518 10.0666C10.7963 9.82211 11.1018 9.69433 11.4685 9.68322C11.8352 9.67211 12.1518 9.78878 12.4185 10.0332L13.6185 11.1999Z" fill="white"/>
</svg>
