<svg width="24" height="24" viewBox="0 0 24 24" fill="none" xmlns="http://www.w3.org/2000/svg">
<path d="M13.0556 23.5C12.6856 23.5 12.3756 23.3749 12.1253 23.1247C11.8751 22.8744 11.75 22.5644 11.75 22.1944C11.75 21.8245 11.8751 21.5145 12.1253 21.2642C12.3756 21.014 12.6856 20.8889 13.0556 20.8889H20.8889V2.61111H13.0556C12.6856 2.61111 12.3756 2.486 12.1253 2.23576C11.8751 1.98553 11.75 1.67546 11.75 1.30556C11.75 0.935648 11.8751 0.625579 12.1253 0.375347C12.3756 0.125116 12.6856 0 13.0556 0H20.8889C21.6069 0 22.2216 0.255671 22.733 0.767014C23.2443 1.27836 23.5 1.89306 23.5 2.61111V20.8889C23.5 21.6069 23.2443 22.2216 22.733 22.733C22.2216 23.2443 21.6069 23.5 20.8889 23.5H13.0556ZM10.6729 13.0556H1.30556C0.935648 13.0556 0.625579 12.9304 0.375347 12.6802C0.125116 12.43 0 12.1199 0 11.75C0 11.3801 0.125116 11.07 0.375347 10.8198C0.625579 10.5696 0.935648 10.4444 1.30556 10.4444H10.6729L8.225 7.99653C7.98565 7.75718 7.86597 7.46343 7.86597 7.11528C7.86597 6.76713 7.98565 6.4625 8.225 6.20139C8.46435 5.94028 8.76898 5.80428 9.13889 5.7934C9.5088 5.78252 9.82431 5.90764 10.0854 6.16875L14.7528 10.8361C15.0139 11.0972 15.1444 11.4019 15.1444 11.75C15.1444 12.0981 15.0139 12.4028 14.7528 12.6639L10.0854 17.3313C9.82431 17.5924 9.51424 17.7175 9.15521 17.7066C8.79618 17.6957 8.48611 17.5597 8.225 17.2986C7.98565 17.0375 7.87141 16.7274 7.88229 16.3684C7.89317 16.0094 8.01829 15.7102 8.25764 15.4708L10.6729 13.0556Z" fill="#CDCDCD"/>
</svg>
