<svg width="44" height="43" viewBox="0 0 44 43" fill="none" xmlns="http://www.w3.org/2000/svg">
<path d="M22.0001 21.483C19.0667 21.483 16.5556 20.4385 14.4667 18.3497C12.3779 16.2608 11.3334 13.7497 11.3334 10.8163C11.3334 7.88299 12.3779 5.37188 14.4667 3.28299C16.5556 1.1941 19.0667 0.149658 22.0001 0.149658C24.9334 0.149658 27.4445 1.1941 29.5334 3.28299C31.6223 5.37188 32.6667 7.88299 32.6667 10.8163C32.6667 13.7497 31.6223 16.2608 29.5334 18.3497C27.4445 20.4385 24.9334 21.483 22.0001 21.483ZM38.0001 42.8163H6.00008C4.53341 42.8163 3.27786 42.2941 2.23341 41.2497C1.18897 40.2052 0.666748 38.9497 0.666748 37.483V35.3497C0.666748 33.8385 1.05564 32.4497 1.83341 31.183C2.61119 29.9163 3.64453 28.9497 4.93341 28.283C7.68897 26.9052 10.489 25.8719 13.3334 25.183C16.1779 24.4941 19.0667 24.1497 22.0001 24.1497C24.9334 24.1497 27.8223 24.4941 30.6667 25.183C33.5112 25.8719 36.3112 26.9052 39.0667 28.283C40.3556 28.9497 41.389 29.9163 42.1667 31.183C42.9445 32.4497 43.3334 33.8385 43.3334 35.3497V37.483C43.3334 38.9497 42.8112 40.2052 41.7668 41.2497C40.7223 42.2941 39.4668 42.8163 38.0001 42.8163ZM6.00008 37.483H38.0001V35.3497C38.0001 34.8608 37.8779 34.4163 37.6334 34.0163C37.389 33.6163 37.0667 33.3052 36.6667 33.083C34.2668 31.883 31.8445 30.983 29.4001 30.383C26.9556 29.783 24.489 29.483 22.0001 29.483C19.5112 29.483 17.0445 29.783 14.6001 30.383C12.1556 30.983 9.73341 31.883 7.33342 33.083C6.93341 33.3052 6.61119 33.6163 6.36675 34.0163C6.1223 34.4163 6.00008 34.8608 6.00008 35.3497V37.483ZM22.0001 16.1497C23.4667 16.1497 24.7223 15.6274 25.7668 14.583C26.8112 13.5385 27.3334 12.283 27.3334 10.8163C27.3334 9.34966 26.8112 8.0941 25.7668 7.04966C24.7223 6.00521 23.4667 5.48299 22.0001 5.48299C20.5334 5.48299 19.2779 6.00521 18.2334 7.04966C17.189 8.0941 16.6667 9.34966 16.6667 10.8163C16.6667 12.283 17.189 13.5385 18.2334 14.583C19.2779 15.6274 20.5334 16.1497 22.0001 16.1497Z" fill="white"/>
</svg>
