<svg width="29" height="29" viewBox="0 0 29 29" fill="none" xmlns="http://www.w3.org/2000/svg">
<circle cx="14.5" cy="14.5" r="13.5" fill="#FF3E3E"/>
<mask id="mask0_261951_8037" style="mask-type:alpha" maskUnits="userSpaceOnUse" x="0" y="0" width="29" height="29">
<rect width="29" height="29" fill="#FF3E3E"/>
</mask>
<g mask="url(#mask0_261951_8037)">
<path d="M14.3728 21.532C14.78 21.532 15.1214 21.3944 15.3969 21.1193C15.6723 20.8441 15.8101 20.5032 15.8101 20.0965C15.8101 19.6898 15.6723 19.3489 15.3969 19.0737C15.1214 18.7986 14.78 18.661 14.3728 18.661C13.9656 18.661 13.6242 18.7986 13.3487 19.0737C13.0733 19.3489 12.9355 19.6898 12.9355 20.0965C12.9355 20.5032 13.0733 20.8441 13.3487 21.1193C13.6242 21.3944 13.9656 21.532 14.3728 21.532ZM14.3728 15.7901C14.78 15.7901 15.1214 15.6525 15.3969 15.3774C15.6723 15.1023 15.8101 14.7614 15.8101 14.3546V8.61278C15.8101 8.20607 15.6723 7.86514 15.3969 7.59001C15.1214 7.31488 14.78 7.17732 14.3728 7.17732C13.9656 7.17732 13.6242 7.31488 13.3487 7.59001C13.0733 7.86514 12.9355 8.20607 12.9355 8.61278V14.3546C12.9355 14.7614 13.0733 15.1023 13.3487 15.3774C13.6242 15.6525 13.9656 15.7901 14.3728 15.7901ZM14.3728 28.7093C12.3846 28.7093 10.5161 28.3325 8.76741 27.5788C7.01872 26.8252 5.4976 25.8025 4.20405 24.5105C2.91049 23.2186 1.88643 21.6994 1.13186 19.9529C0.377286 18.2065 0 16.3404 0 14.3546C0 12.3689 0.377286 10.5028 1.13186 8.75633C1.88643 7.00985 2.91049 5.49065 4.20405 4.19873C5.4976 2.90681 7.01872 1.88405 8.76741 1.13043C10.5161 0.376809 12.3846 0 14.3728 0C16.361 0 18.2295 0.376809 19.9782 1.13043C21.7269 1.88405 23.248 2.90681 24.5416 4.19873C25.8351 5.49065 26.8592 7.00985 27.6138 8.75633C28.3683 10.5028 28.7456 12.3689 28.7456 14.3546C28.7456 16.3404 28.3683 18.2065 27.6138 19.9529C26.8592 21.6994 25.8351 23.2186 24.5416 24.5105C23.248 25.8025 21.7269 26.8252 19.9782 27.5788C18.2295 28.3325 16.361 28.7093 14.3728 28.7093ZM14.3728 25.8383C17.5827 25.8383 20.3016 24.7259 22.5294 22.5009C24.7572 20.2759 25.8711 17.5605 25.8711 14.3546C25.8711 11.1488 24.7572 8.43335 22.5294 6.20838C20.3016 3.98341 17.5827 2.87093 14.3728 2.87093C11.1629 2.87093 8.44403 3.98341 6.21624 6.20838C3.98845 8.43335 2.87456 11.1488 2.87456 14.3546C2.87456 17.5605 3.98845 20.2759 6.21624 22.5009C8.44403 24.7259 11.1629 25.8383 14.3728 25.8383Z" fill="white"/>
</g>
</svg>
